<mxfile host="app.diagrams.net" modified="2022-05-30T13:40:09.593Z" agent="5.0 (Windows NT 10.0; Win64; x64) AppleWebKit/537.36 (KHTML, like Gecko) Chrome/100.0.4896.143 YaBrowser/22.5.0.1814 Yowser/2.5 Safari/537.36" etag="VsZAmKMlBKBX_CF-wpnm" version="18.0.6" type="github">
  <diagram name="Page-1" id="97916047-d0de-89f5-080d-49f4d83e522f">
    <mxGraphModel dx="2062" dy="1149" grid="1" gridSize="10" guides="1" tooltips="1" connect="1" arrows="1" fold="1" page="1" pageScale="1.5" pageWidth="1169" pageHeight="827" background="none" math="0" shadow="0">
      <root>
        <mxCell id="0" />
        <mxCell id="1" parent="0" />
        <mxCell id="-T22v1vM4pec5ZSHBmMc-65" style="edgeStyle=orthogonalEdgeStyle;rounded=0;orthogonalLoop=1;jettySize=auto;html=1;entryX=0.5;entryY=0;entryDx=0;entryDy=0;fontSize=15;" edge="1" parent="1" source="-T22v1vM4pec5ZSHBmMc-55" target="-T22v1vM4pec5ZSHBmMc-63">
          <mxGeometry relative="1" as="geometry" />
        </mxCell>
        <mxCell id="-T22v1vM4pec5ZSHBmMc-66" style="edgeStyle=orthogonalEdgeStyle;rounded=0;orthogonalLoop=1;jettySize=auto;html=1;entryX=0.5;entryY=0;entryDx=0;entryDy=0;fontSize=15;" edge="1" parent="1" source="-T22v1vM4pec5ZSHBmMc-55" target="-T22v1vM4pec5ZSHBmMc-58">
          <mxGeometry relative="1" as="geometry" />
        </mxCell>
        <mxCell id="-T22v1vM4pec5ZSHBmMc-67" style="edgeStyle=orthogonalEdgeStyle;rounded=0;orthogonalLoop=1;jettySize=auto;html=1;entryX=0.5;entryY=0;entryDx=0;entryDy=0;fontSize=15;" edge="1" parent="1" source="-T22v1vM4pec5ZSHBmMc-55" target="-T22v1vM4pec5ZSHBmMc-61">
          <mxGeometry relative="1" as="geometry" />
        </mxCell>
        <mxCell id="-T22v1vM4pec5ZSHBmMc-68" style="edgeStyle=orthogonalEdgeStyle;rounded=0;orthogonalLoop=1;jettySize=auto;html=1;fontSize=15;" edge="1" parent="1" source="-T22v1vM4pec5ZSHBmMc-55" target="-T22v1vM4pec5ZSHBmMc-62">
          <mxGeometry relative="1" as="geometry" />
        </mxCell>
        <mxCell id="-T22v1vM4pec5ZSHBmMc-86" style="edgeStyle=orthogonalEdgeStyle;rounded=0;orthogonalLoop=1;jettySize=auto;html=1;fontSize=15;" edge="1" parent="1" source="-T22v1vM4pec5ZSHBmMc-55" target="-T22v1vM4pec5ZSHBmMc-83">
          <mxGeometry relative="1" as="geometry" />
        </mxCell>
        <mxCell id="-T22v1vM4pec5ZSHBmMc-55" value="&lt;font style=&quot;font-size: 15px;&quot;&gt;Генеральный директор&lt;/font&gt;" style="rounded=1;whiteSpace=wrap;html=1;" vertex="1" parent="1">
          <mxGeometry x="790" y="40" width="120" height="60" as="geometry" />
        </mxCell>
        <mxCell id="-T22v1vM4pec5ZSHBmMc-72" value="" style="edgeStyle=orthogonalEdgeStyle;rounded=0;orthogonalLoop=1;jettySize=auto;html=1;fontSize=15;" edge="1" parent="1" source="-T22v1vM4pec5ZSHBmMc-58" target="-T22v1vM4pec5ZSHBmMc-71">
          <mxGeometry relative="1" as="geometry" />
        </mxCell>
        <mxCell id="-T22v1vM4pec5ZSHBmMc-58" value="&lt;font style=&quot;font-size: 15px;&quot;&gt;Руководитель административным отделом&lt;/font&gt;" style="rounded=1;whiteSpace=wrap;html=1;" vertex="1" parent="1">
          <mxGeometry x="550" y="195" width="140" height="90" as="geometry" />
        </mxCell>
        <mxCell id="-T22v1vM4pec5ZSHBmMc-74" value="" style="edgeStyle=orthogonalEdgeStyle;rounded=0;orthogonalLoop=1;jettySize=auto;html=1;fontSize=15;" edge="1" parent="1" source="-T22v1vM4pec5ZSHBmMc-61" target="-T22v1vM4pec5ZSHBmMc-73">
          <mxGeometry relative="1" as="geometry" />
        </mxCell>
        <mxCell id="-T22v1vM4pec5ZSHBmMc-61" value="Руководитель летным отделом" style="rounded=1;whiteSpace=wrap;html=1;fontSize=15;" vertex="1" parent="1">
          <mxGeometry x="775" y="195" width="150" height="90" as="geometry" />
        </mxCell>
        <mxCell id="-T22v1vM4pec5ZSHBmMc-76" value="" style="edgeStyle=orthogonalEdgeStyle;rounded=0;orthogonalLoop=1;jettySize=auto;html=1;fontSize=15;" edge="1" parent="1" source="-T22v1vM4pec5ZSHBmMc-62" target="-T22v1vM4pec5ZSHBmMc-75">
          <mxGeometry relative="1" as="geometry" />
        </mxCell>
        <mxCell id="-T22v1vM4pec5ZSHBmMc-62" value="Руководитель отделом&lt;br&gt;&amp;nbsp;бортпроводников" style="rounded=1;whiteSpace=wrap;html=1;fontSize=15;" vertex="1" parent="1">
          <mxGeometry x="1000" y="195" width="160" height="90" as="geometry" />
        </mxCell>
        <mxCell id="-T22v1vM4pec5ZSHBmMc-70" value="" style="edgeStyle=orthogonalEdgeStyle;rounded=0;orthogonalLoop=1;jettySize=auto;html=1;fontSize=15;" edge="1" parent="1" source="-T22v1vM4pec5ZSHBmMc-63" target="-T22v1vM4pec5ZSHBmMc-69">
          <mxGeometry relative="1" as="geometry" />
        </mxCell>
        <mxCell id="-T22v1vM4pec5ZSHBmMc-63" value="Руководитель отделом продажи авиаперевозок" style="rounded=1;whiteSpace=wrap;html=1;fontSize=15;" vertex="1" parent="1">
          <mxGeometry x="320" y="195" width="140" height="90" as="geometry" />
        </mxCell>
        <mxCell id="-T22v1vM4pec5ZSHBmMc-91" value="" style="edgeStyle=orthogonalEdgeStyle;rounded=0;orthogonalLoop=1;jettySize=auto;html=1;fontSize=15;" edge="1" parent="1" source="-T22v1vM4pec5ZSHBmMc-69" target="-T22v1vM4pec5ZSHBmMc-79">
          <mxGeometry relative="1" as="geometry">
            <Array as="points">
              <mxPoint x="330" y="500" />
            </Array>
          </mxGeometry>
        </mxCell>
        <mxCell id="-T22v1vM4pec5ZSHBmMc-109" style="edgeStyle=orthogonalEdgeStyle;rounded=0;orthogonalLoop=1;jettySize=auto;html=1;exitX=0.25;exitY=1;exitDx=0;exitDy=0;entryX=0;entryY=0.5;entryDx=0;entryDy=0;fontSize=15;" edge="1" parent="1" source="-T22v1vM4pec5ZSHBmMc-69" target="-T22v1vM4pec5ZSHBmMc-108">
          <mxGeometry relative="1" as="geometry">
            <Array as="points">
              <mxPoint x="330" y="440" />
              <mxPoint x="330" y="580" />
            </Array>
          </mxGeometry>
        </mxCell>
        <mxCell id="-T22v1vM4pec5ZSHBmMc-111" style="edgeStyle=orthogonalEdgeStyle;rounded=0;orthogonalLoop=1;jettySize=auto;html=1;exitX=0.25;exitY=1;exitDx=0;exitDy=0;entryX=0;entryY=0.5;entryDx=0;entryDy=0;fontSize=15;" edge="1" parent="1" source="-T22v1vM4pec5ZSHBmMc-69" target="-T22v1vM4pec5ZSHBmMc-110">
          <mxGeometry relative="1" as="geometry">
            <Array as="points">
              <mxPoint x="330" y="440" />
              <mxPoint x="330" y="660" />
            </Array>
          </mxGeometry>
        </mxCell>
        <mxCell id="-T22v1vM4pec5ZSHBmMc-69" value="&lt;span style=&quot;&quot;&gt;Отдел продажи &lt;br&gt;авиаперевозок&lt;/span&gt;" style="shape=trapezoid;perimeter=trapezoidPerimeter;whiteSpace=wrap;html=1;fixedSize=1;fontSize=15;" vertex="1" parent="1">
          <mxGeometry x="280" y="330" width="220" height="110" as="geometry" />
        </mxCell>
        <mxCell id="-T22v1vM4pec5ZSHBmMc-122" style="edgeStyle=orthogonalEdgeStyle;rounded=0;orthogonalLoop=1;jettySize=auto;html=1;exitX=0.25;exitY=1;exitDx=0;exitDy=0;entryX=0;entryY=0.5;entryDx=0;entryDy=0;fontSize=15;" edge="1" parent="1" source="-T22v1vM4pec5ZSHBmMc-71" target="-T22v1vM4pec5ZSHBmMc-80">
          <mxGeometry relative="1" as="geometry" />
        </mxCell>
        <mxCell id="-T22v1vM4pec5ZSHBmMc-123" style="edgeStyle=orthogonalEdgeStyle;rounded=0;orthogonalLoop=1;jettySize=auto;html=1;exitX=0.25;exitY=1;exitDx=0;exitDy=0;entryX=0;entryY=0.5;entryDx=0;entryDy=0;fontSize=15;" edge="1" parent="1" source="-T22v1vM4pec5ZSHBmMc-71" target="-T22v1vM4pec5ZSHBmMc-120">
          <mxGeometry relative="1" as="geometry" />
        </mxCell>
        <mxCell id="-T22v1vM4pec5ZSHBmMc-71" value="&lt;span style=&quot;&quot;&gt;Отдел администрации&lt;/span&gt;" style="shape=trapezoid;perimeter=trapezoidPerimeter;whiteSpace=wrap;html=1;fixedSize=1;fontSize=15;" vertex="1" parent="1">
          <mxGeometry x="510" y="330" width="220" height="110" as="geometry" />
        </mxCell>
        <mxCell id="-T22v1vM4pec5ZSHBmMc-113" style="edgeStyle=orthogonalEdgeStyle;rounded=0;orthogonalLoop=1;jettySize=auto;html=1;exitX=0.25;exitY=1;exitDx=0;exitDy=0;entryX=0;entryY=0.5;entryDx=0;entryDy=0;fontSize=15;" edge="1" parent="1" source="-T22v1vM4pec5ZSHBmMc-73" target="-T22v1vM4pec5ZSHBmMc-81">
          <mxGeometry relative="1" as="geometry" />
        </mxCell>
        <mxCell id="-T22v1vM4pec5ZSHBmMc-114" style="edgeStyle=orthogonalEdgeStyle;rounded=0;orthogonalLoop=1;jettySize=auto;html=1;exitX=0.25;exitY=1;exitDx=0;exitDy=0;entryX=0;entryY=0.5;entryDx=0;entryDy=0;fontSize=15;" edge="1" parent="1" source="-T22v1vM4pec5ZSHBmMc-73" target="-T22v1vM4pec5ZSHBmMc-112">
          <mxGeometry relative="1" as="geometry" />
        </mxCell>
        <mxCell id="-T22v1vM4pec5ZSHBmMc-73" value="&lt;span style=&quot;&quot;&gt;Летный отдел&lt;br&gt;&lt;/span&gt;" style="shape=trapezoid;perimeter=trapezoidPerimeter;whiteSpace=wrap;html=1;fixedSize=1;fontSize=15;" vertex="1" parent="1">
          <mxGeometry x="740" y="330" width="220" height="110" as="geometry" />
        </mxCell>
        <mxCell id="-T22v1vM4pec5ZSHBmMc-95" value="" style="edgeStyle=orthogonalEdgeStyle;rounded=0;orthogonalLoop=1;jettySize=auto;html=1;fontSize=15;" edge="1" parent="1" source="-T22v1vM4pec5ZSHBmMc-75" target="-T22v1vM4pec5ZSHBmMc-82">
          <mxGeometry relative="1" as="geometry" />
        </mxCell>
        <mxCell id="-T22v1vM4pec5ZSHBmMc-75" value="&lt;span style=&quot;&quot;&gt;Отдел бортпроводников&lt;br&gt;&lt;/span&gt;" style="shape=trapezoid;perimeter=trapezoidPerimeter;whiteSpace=wrap;html=1;fixedSize=1;fontSize=15;" vertex="1" parent="1">
          <mxGeometry x="970" y="330" width="220" height="110" as="geometry" />
        </mxCell>
        <mxCell id="-T22v1vM4pec5ZSHBmMc-79" value="Кассир" style="rounded=1;whiteSpace=wrap;html=1;fontSize=15;" vertex="1" parent="1">
          <mxGeometry x="370" y="470" width="120" height="60" as="geometry" />
        </mxCell>
        <mxCell id="-T22v1vM4pec5ZSHBmMc-80" value="Администратор" style="rounded=0;whiteSpace=wrap;html=1;fontSize=15;" vertex="1" parent="1">
          <mxGeometry x="600" y="470" width="120" height="60" as="geometry" />
        </mxCell>
        <mxCell id="-T22v1vM4pec5ZSHBmMc-81" value="Пилот" style="rounded=0;whiteSpace=wrap;html=1;fontSize=15;" vertex="1" parent="1">
          <mxGeometry x="840" y="470" width="120" height="60" as="geometry" />
        </mxCell>
        <mxCell id="-T22v1vM4pec5ZSHBmMc-82" value="Бортпроводник" style="rounded=0;whiteSpace=wrap;html=1;fontSize=15;" vertex="1" parent="1">
          <mxGeometry x="1020" y="470" width="120" height="60" as="geometry" />
        </mxCell>
        <mxCell id="-T22v1vM4pec5ZSHBmMc-85" value="" style="edgeStyle=orthogonalEdgeStyle;rounded=0;orthogonalLoop=1;jettySize=auto;html=1;fontSize=15;" edge="1" parent="1" source="-T22v1vM4pec5ZSHBmMc-83" target="-T22v1vM4pec5ZSHBmMc-84">
          <mxGeometry relative="1" as="geometry" />
        </mxCell>
        <mxCell id="-T22v1vM4pec5ZSHBmMc-83" value="Руководитель отделения внешних связей" style="rounded=1;whiteSpace=wrap;html=1;fontSize=15;" vertex="1" parent="1">
          <mxGeometry x="1235" y="195" width="150" height="90" as="geometry" />
        </mxCell>
        <mxCell id="-T22v1vM4pec5ZSHBmMc-98" style="edgeStyle=orthogonalEdgeStyle;rounded=0;orthogonalLoop=1;jettySize=auto;html=1;exitX=1;exitY=1;exitDx=0;exitDy=0;entryX=1;entryY=0.5;entryDx=0;entryDy=0;fontSize=15;" edge="1" parent="1" source="-T22v1vM4pec5ZSHBmMc-84" target="-T22v1vM4pec5ZSHBmMc-88">
          <mxGeometry relative="1" as="geometry">
            <Array as="points">
              <mxPoint x="1420" y="520" />
            </Array>
          </mxGeometry>
        </mxCell>
        <mxCell id="-T22v1vM4pec5ZSHBmMc-100" style="edgeStyle=orthogonalEdgeStyle;rounded=0;orthogonalLoop=1;jettySize=auto;html=1;exitX=1;exitY=1;exitDx=0;exitDy=0;entryX=0;entryY=0.5;entryDx=0;entryDy=0;fontSize=15;" edge="1" parent="1" source="-T22v1vM4pec5ZSHBmMc-84" target="-T22v1vM4pec5ZSHBmMc-90">
          <mxGeometry relative="1" as="geometry">
            <Array as="points">
              <mxPoint x="1420" y="520" />
            </Array>
          </mxGeometry>
        </mxCell>
        <mxCell id="-T22v1vM4pec5ZSHBmMc-101" style="edgeStyle=orthogonalEdgeStyle;rounded=0;orthogonalLoop=1;jettySize=auto;html=1;exitX=1;exitY=1;exitDx=0;exitDy=0;entryX=0.5;entryY=0;entryDx=0;entryDy=0;fontSize=15;" edge="1" parent="1" source="-T22v1vM4pec5ZSHBmMc-84" target="-T22v1vM4pec5ZSHBmMc-89">
          <mxGeometry relative="1" as="geometry" />
        </mxCell>
        <mxCell id="-T22v1vM4pec5ZSHBmMc-84" value="&lt;span style=&quot;&quot;&gt;Отдел&amp;nbsp;&lt;/span&gt;внешних связей&lt;span style=&quot;&quot;&gt;&lt;br&gt;&lt;/span&gt;" style="shape=trapezoid;perimeter=trapezoidPerimeter;whiteSpace=wrap;html=1;fixedSize=1;fontSize=15;" vertex="1" parent="1">
          <mxGeometry x="1200" y="330" width="220" height="110" as="geometry" />
        </mxCell>
        <mxCell id="-T22v1vM4pec5ZSHBmMc-103" style="edgeStyle=orthogonalEdgeStyle;rounded=0;orthogonalLoop=1;jettySize=auto;html=1;exitX=0.25;exitY=1;exitDx=0;exitDy=0;entryX=0.25;entryY=0;entryDx=0;entryDy=0;fontSize=15;" edge="1" parent="1" source="-T22v1vM4pec5ZSHBmMc-88" target="-T22v1vM4pec5ZSHBmMc-102">
          <mxGeometry relative="1" as="geometry" />
        </mxCell>
        <mxCell id="-T22v1vM4pec5ZSHBmMc-88" value="Юридическое&lt;br&gt;подразделение" style="shape=trapezoid;perimeter=trapezoidPerimeter;whiteSpace=wrap;html=1;fixedSize=1;fontSize=15;" vertex="1" parent="1">
          <mxGeometry x="1200" y="470" width="170" height="100" as="geometry" />
        </mxCell>
        <mxCell id="-T22v1vM4pec5ZSHBmMc-107" value="" style="edgeStyle=orthogonalEdgeStyle;rounded=0;orthogonalLoop=1;jettySize=auto;html=1;fontSize=15;" edge="1" parent="1" source="-T22v1vM4pec5ZSHBmMc-89" target="-T22v1vM4pec5ZSHBmMc-106">
          <mxGeometry relative="1" as="geometry" />
        </mxCell>
        <mxCell id="-T22v1vM4pec5ZSHBmMc-89" value="&lt;span style=&quot;color: rgb(51, 51, 51); font-family: &amp;quot;YS Text&amp;quot;, Arial, Helvetica, sans-serif; font-size: 16px; text-align: start; background-color: rgb(255, 255, 255);&quot;&gt;Инженерно-авиационное&lt;br&gt;подразделение&lt;br&gt;&lt;/span&gt;" style="shape=trapezoid;perimeter=trapezoidPerimeter;whiteSpace=wrap;html=1;fixedSize=1;fontSize=15;" vertex="1" parent="1">
          <mxGeometry x="1330" y="600" width="170" height="100" as="geometry" />
        </mxCell>
        <mxCell id="-T22v1vM4pec5ZSHBmMc-117" style="edgeStyle=orthogonalEdgeStyle;rounded=0;orthogonalLoop=1;jettySize=auto;html=1;exitX=0.5;exitY=1;exitDx=0;exitDy=0;entryX=0;entryY=0.5;entryDx=0;entryDy=0;fontSize=15;" edge="1" parent="1" source="-T22v1vM4pec5ZSHBmMc-90" target="-T22v1vM4pec5ZSHBmMc-104">
          <mxGeometry relative="1" as="geometry" />
        </mxCell>
        <mxCell id="-T22v1vM4pec5ZSHBmMc-118" style="edgeStyle=orthogonalEdgeStyle;rounded=0;orthogonalLoop=1;jettySize=auto;html=1;exitX=0.5;exitY=1;exitDx=0;exitDy=0;entryX=0;entryY=0.5;entryDx=0;entryDy=0;fontSize=15;" edge="1" parent="1" source="-T22v1vM4pec5ZSHBmMc-90" target="-T22v1vM4pec5ZSHBmMc-115">
          <mxGeometry relative="1" as="geometry" />
        </mxCell>
        <mxCell id="-T22v1vM4pec5ZSHBmMc-119" style="edgeStyle=orthogonalEdgeStyle;rounded=0;orthogonalLoop=1;jettySize=auto;html=1;exitX=0.5;exitY=1;exitDx=0;exitDy=0;entryX=0;entryY=0.5;entryDx=0;entryDy=0;fontSize=15;" edge="1" parent="1" source="-T22v1vM4pec5ZSHBmMc-90" target="-T22v1vM4pec5ZSHBmMc-116">
          <mxGeometry relative="1" as="geometry" />
        </mxCell>
        <mxCell id="-T22v1vM4pec5ZSHBmMc-90" value="Подразделение&lt;br&gt;Внешнеэкономических связей" style="shape=trapezoid;perimeter=trapezoidPerimeter;whiteSpace=wrap;html=1;fixedSize=1;fontSize=15;" vertex="1" parent="1">
          <mxGeometry x="1450" y="470" width="180" height="100" as="geometry" />
        </mxCell>
        <mxCell id="-T22v1vM4pec5ZSHBmMc-102" value="Юрист" style="rounded=1;whiteSpace=wrap;html=1;fontSize=15;" vertex="1" parent="1">
          <mxGeometry x="1200" y="600" width="120" height="60" as="geometry" />
        </mxCell>
        <mxCell id="-T22v1vM4pec5ZSHBmMc-104" value="Экономист" style="rounded=1;whiteSpace=wrap;html=1;fontSize=15;" vertex="1" parent="1">
          <mxGeometry x="1570" y="600" width="120" height="60" as="geometry" />
        </mxCell>
        <mxCell id="-T22v1vM4pec5ZSHBmMc-106" value="Летный техник" style="rounded=1;whiteSpace=wrap;html=1;fontSize=15;" vertex="1" parent="1">
          <mxGeometry x="1355" y="740" width="120" height="60" as="geometry" />
        </mxCell>
        <mxCell id="-T22v1vM4pec5ZSHBmMc-108" value="Менеджер по авиаперевозкам" style="rounded=1;whiteSpace=wrap;html=1;fontSize=15;" vertex="1" parent="1">
          <mxGeometry x="370" y="550" width="120" height="60" as="geometry" />
        </mxCell>
        <mxCell id="-T22v1vM4pec5ZSHBmMc-110" value="Логист" style="rounded=1;whiteSpace=wrap;html=1;fontSize=15;" vertex="1" parent="1">
          <mxGeometry x="370" y="630" width="120" height="60" as="geometry" />
        </mxCell>
        <mxCell id="-T22v1vM4pec5ZSHBmMc-112" value="Штурман" style="rounded=0;whiteSpace=wrap;html=1;fontSize=15;" vertex="1" parent="1">
          <mxGeometry x="840" y="550" width="120" height="60" as="geometry" />
        </mxCell>
        <mxCell id="-T22v1vM4pec5ZSHBmMc-115" value="Маркетолог" style="rounded=1;whiteSpace=wrap;html=1;fontSize=15;" vertex="1" parent="1">
          <mxGeometry x="1570" y="680" width="120" height="60" as="geometry" />
        </mxCell>
        <mxCell id="-T22v1vM4pec5ZSHBmMc-116" value="Планировщик" style="rounded=1;whiteSpace=wrap;html=1;fontSize=15;" vertex="1" parent="1">
          <mxGeometry x="1570" y="760" width="120" height="60" as="geometry" />
        </mxCell>
        <mxCell id="-T22v1vM4pec5ZSHBmMc-120" value="Авиационный менеджер" style="rounded=1;whiteSpace=wrap;html=1;fontSize=15;" vertex="1" parent="1">
          <mxGeometry x="600" y="550" width="120" height="60" as="geometry" />
        </mxCell>
      </root>
    </mxGraphModel>
  </diagram>
</mxfile>
